<svg xmlns="http://www.w3.org/2000/svg" viewBox="0 0 279 199.53"><defs><style>.cls-1{fill:#050505;}.cls-2{fill:#fafafa;}.cls-3{fill:#fff;}</style></defs><g id="Layer_2" data-name="Layer 2"><g id="Layer_1-2" data-name="Layer 1"><rect class="cls-1" y="184.49" width="278.08" height="15.04"/><path d="M47.63,14.7v1.77a9.38,9.38,0,0,1-2.18.92,9,9,0,0,1-2.18.25,8.23,8.23,0,0,1-6.22-2.52,8.87,8.87,0,0,1-2.52-6.3,8.55,8.55,0,0,1,2.52-6.3A8.49,8.49,0,0,1,43.27,0a9,9,0,0,1,2.18.25,9.44,9.44,0,0,1,2.18.93V2.94a7.1,7.1,0,0,0-2.18-1.26A7.16,7.16,0,0,0,43,1.34a6.34,6.34,0,0,0-4.62,1.85A7.87,7.87,0,0,0,36,8h8.15V9.49H36a7.2,7.2,0,0,0,2.27,4.88A6.5,6.5,0,0,0,43,16.21a7.51,7.51,0,0,0,2.44-.33,5.53,5.53,0,0,0,2.18-1.18"/><path d="M143.24,160.46a19.83,19.83,0,0,1,4.2-12.27,18.2,18.2,0,0,1,6.47-5.12,18.89,18.89,0,0,1,8.15-1.76,18.6,18.6,0,0,1,6.47,1.09,19.46,19.46,0,0,1,5.62,3.19,18.39,18.39,0,0,1,5.13,6.55,19.8,19.8,0,0,1,1.76,8.32A19.24,19.24,0,0,1,180,167.1a20.57,20.57,0,0,1-3.11,5.71,20.1,20.1,0,0,1-6.47,5.21,18.92,18.92,0,0,1-8.06,1.76,19.8,19.8,0,0,1-7.39-1.43,17,17,0,0,1-6.14-4.2,18.27,18.27,0,0,1-4.11-6.13,19.5,19.5,0,0,1-1.43-7.56m3.44,0A15.93,15.93,0,0,0,151.22,172a14.83,14.83,0,0,0,11.09,4.62,14.63,14.63,0,0,0,11-4.62,16.2,16.2,0,0,0,4.46-11.51A15.93,15.93,0,0,0,173.23,149a14.9,14.9,0,0,0-11.09-4.7,14.51,14.51,0,0,0-11,4.62,16.25,16.25,0,0,0-4.46,11.59"/><path d="M185.24,141.81h.51c6.21,0,11.17,1.68,14.87,5.12s5.54,7.9,5.54,13.53A17.71,17.71,0,0,1,200.62,174c-3.7,3.44-8.57,5.12-14.62,5.12h-.76Zm3.28,3.44v30.42a14.34,14.34,0,0,0,10.33-4.46,15.06,15.06,0,0,0,3.87-10.75,15.26,15.26,0,0,0-3.95-10.84,13.36,13.36,0,0,0-10.25-4.37"/><path d="M237.5,173.06v3.87a22.77,22.77,0,0,1-4.79,2,17.82,17.82,0,0,1-4.79.68,18.23,18.23,0,0,1-13.61-5.55,19.91,19.91,0,0,1,0-27.39,18.56,18.56,0,0,1,13.61-5.54,18.89,18.89,0,0,1,4.87.67,20.08,20.08,0,0,1,4.71,2v3.94a17.8,17.8,0,0,0-4.71-2.68,16.44,16.44,0,0,0-5.29-.84,14.52,14.52,0,0,0-10.16,3.95,16.32,16.32,0,0,0-5,10.41h17.8v3.19H212.3a16.82,16.82,0,0,0,4.87,10.67,14.54,14.54,0,0,0,10.25,4.12,15.4,15.4,0,0,0,10.08-3.53"/><path d="M245.56,179h-3.44v-37.3h.34a15.26,15.26,0,0,1,10.75,3.86,12.13,12.13,0,0,1,4.2,9.58,13.66,13.66,0,0,1-1.68,6.63,22.24,22.24,0,0,1-5.55,5.89,13.23,13.23,0,0,0,2.86,4.7,16.21,16.21,0,0,0,4.62,3.53v3.86a23.24,23.24,0,0,1-4.62-2.52,15.33,15.33,0,0,1-3.36-3.27,18.91,18.91,0,0,1-2.6-4.62,10.77,10.77,0,0,1-1.1-3.7c0-.17.34-.42,1.1-.76a8,8,0,0,0,2-1.17,13.37,13.37,0,0,0,3.62-4,9,9,0,0,0,1.25-4.62,9.56,9.56,0,0,0-8.31-9.5V179Z"/><path d="M265.81,179a11.06,11.06,0,0,0,3.78-4.12,11.19,11.19,0,0,0,1.35-5.21,7.59,7.59,0,0,0-.85-3.61,14.55,14.55,0,0,0-2.85-3.7l-.42-.42c-3.45-3.44-5.21-6.63-5.21-9.49a11.52,11.52,0,0,1,3.19-8.07,10.39,10.39,0,0,1,7.9-3.36,13.88,13.88,0,0,1,3.11.42,19.55,19.55,0,0,1,3.19,1.18v3.53a10.24,10.24,0,0,0-2.86-1.51,9.34,9.34,0,0,0-3-.51,7.44,7.44,0,0,0-5.55,2.27,8.31,8.31,0,0,0-1.26,9.41,18.24,18.24,0,0,0,3.28,3.95,17.73,17.73,0,0,1,3.7,4.7,11.88,11.88,0,0,1,1.17,5.13,14.18,14.18,0,0,1-3.44,9.32h-5.21Z"/><path class="cls-2" d="M7.14,198.1a15,15,0,0,1-2-4.88,21,21,0,0,1-.67-5.71v-.84h1v1.09a22.22,22.22,0,0,0,.42,4.12A20.74,20.74,0,0,0,7.14,196l2.27-6,2,6a19.48,19.48,0,0,0,1.42-4.46,23.93,23.93,0,0,0,.51-4.28v-.5h1v.33a22.73,22.73,0,0,1-.76,5.88,17.6,17.6,0,0,1-2.27,5.13l-1.93-5.63Z"/><polygon class="cls-2" points="21.25 191.88 21.25 186.76 22.26 186.76 22.26 198.1 21.25 198.1 21.25 192.81 16.46 192.81 16.46 198.1 15.46 198.1 15.46 186.76 16.46 186.76 16.46 191.88 21.25 191.88"/><path class="cls-2" d="M31.84,196.33v1.18a5.28,5.28,0,0,1-1.43.59,3.88,3.88,0,0,1-1.43.17,5.5,5.5,0,0,1-4-1.69,5.7,5.7,0,0,1-1.59-4.2,5.84,5.84,0,0,1,1.59-4.2,5.53,5.53,0,0,1,4-1.68,7.68,7.68,0,0,1,1.43.17,6.79,6.79,0,0,1,1.43.59v1.18a4.68,4.68,0,0,0-1.34-.84,4.37,4.37,0,0,0-1.52-.26A4.06,4.06,0,0,0,26,188.52a5.21,5.21,0,0,0-1.51,3.19h5.21v1H24.53A5.39,5.39,0,0,0,26,196a4.12,4.12,0,0,0,3,1.26A4.06,4.06,0,0,0,30.5,197a3.25,3.25,0,0,0,1.34-.67"/><path class="cls-2" d="M34.28,198.1h-1V186.76h.08a4.69,4.69,0,0,1,3.19,1.17,3.83,3.83,0,0,1,1.26,2.94,4,4,0,0,1-.5,2,5.46,5.46,0,0,1-1.68,1.76,3.56,3.56,0,0,0,.84,1.43,8.29,8.29,0,0,0,1.34,1.09v1.18a9,9,0,0,1-1.34-.76,2.87,2.87,0,0,1-1-1,3.86,3.86,0,0,1-.75-1.42,10.52,10.52,0,0,1-.34-1.1c0-.08.08-.16.34-.25a3.32,3.32,0,0,0,.58-.33,3.69,3.69,0,0,0,1.1-1.18,2.77,2.77,0,0,0,.33-1.43,3.18,3.18,0,0,0-.67-1.93,2.69,2.69,0,0,0-1.76-1Z"/><path class="cls-2" d="M47.21,196.33v1.18a5.36,5.36,0,0,1-1.42.59,3.91,3.91,0,0,1-1.43.17,5.52,5.52,0,0,1-4-1.69,5.7,5.7,0,0,1-1.59-4.2,5.84,5.84,0,0,1,1.59-4.2,5.55,5.55,0,0,1,4-1.68,7.78,7.78,0,0,1,1.43.17,6.73,6.73,0,0,1,1.42.59v1.18a4.68,4.68,0,0,0-1.34-.84,4.35,4.35,0,0,0-1.51-.26,4,4,0,0,0-2.94,1.18,5.22,5.22,0,0,0-1.52,3.19h5.21v1H39.9A5.39,5.39,0,0,0,41.33,196a4.13,4.13,0,0,0,3,1.26,4,4,0,0,0,1.51-.26,3.81,3.81,0,0,0,1.34-.67"/><path class="cls-2" d="M62.5,196.33v1.18a4,4,0,0,1-1.34.59,4.86,4.86,0,0,1-1.6.17,6,6,0,0,1-2.1-.42,4.34,4.34,0,0,1-1.76-1.27,5.46,5.46,0,0,1-1.18-1.93,6.46,6.46,0,0,1-.42-2.27,5.85,5.85,0,0,1,1.6-4.2,5.53,5.53,0,0,1,4-1.68,7.68,7.68,0,0,1,1.43.17,7,7,0,0,1,1.43.59v1.18a4.85,4.85,0,0,0-1.35-.84,4.31,4.31,0,0,0-1.51-.26,4.22,4.22,0,0,0-3.19,1.43,5.06,5.06,0,0,0-1.26,3.53,5.2,5.2,0,0,0,1.26,3.53,3.93,3.93,0,0,0,3.19,1.43,4.88,4.88,0,0,0,1.6-.26,4.22,4.22,0,0,0,1.17-.67"/><path class="cls-2" d="M63.43,192.47a5.7,5.7,0,0,1,.33-2,5.16,5.16,0,0,1,.93-1.76,5.56,5.56,0,0,1,4.37-2.19,5.24,5.24,0,0,1,1.93.34,6.7,6.7,0,0,1,1.68,1,5.79,5.79,0,0,1,1.51,2,6.1,6.1,0,0,1,.51,2.52,5.68,5.68,0,0,1-.34,2,6.87,6.87,0,0,1-.92,1.76,5.93,5.93,0,0,1-1.94,1.6,5.55,5.55,0,0,1-2.35.51,6.31,6.31,0,0,1-2.18-.42,6.72,6.72,0,0,1-1.85-1.27,6,6,0,0,1-1.18-1.84,5.68,5.68,0,0,1-.5-2.27m1,0A4.77,4.77,0,0,0,65.78,196a4.41,4.41,0,0,0,3.28,1.43A4.22,4.22,0,0,0,72.25,196a5.11,5.11,0,0,0,1.34-3.53,4.9,4.9,0,0,0-1.34-3.53A4.09,4.09,0,0,0,69,187.51a4.22,4.22,0,0,0-3.19,1.43,5.09,5.09,0,0,0-1.34,3.53"/><path class="cls-2" d="M75.78,186.76H76a6.12,6.12,0,0,1,4.36,1.51,6.09,6.09,0,0,1,0,8.23A6.1,6.1,0,0,1,76,198.1h-.25Zm.92,1V197a4.24,4.24,0,0,0,3-1.34,5.17,5.17,0,0,0,0-6.55,4.29,4.29,0,0,0-3-1.35"/><rect class="cls-2" x="83.17" y="186.76" width="1.01" height="11.34"/><path class="cls-2" d="M85.94,198.1V186.5A12.46,12.46,0,0,1,89.22,189a9.25,9.25,0,0,1,1.85,3.45l-.17-5.8h1V198h-1v-.84a12.88,12.88,0,0,0-1-5.21,9.5,9.5,0,0,0-3-3.78v9.75h-.93Z"/><path class="cls-2" d="M101.23,192.38v5.38a6.09,6.09,0,0,1-1.17.42,5.33,5.33,0,0,1-1.18.17,5.21,5.21,0,0,1-3.95-1.68,5.7,5.7,0,0,1-1.59-4.2,5.83,5.83,0,0,1,1.59-4.2,5.53,5.53,0,0,1,4-1.68,6.92,6.92,0,0,1,1.43.17,6.22,6.22,0,0,1,1.43.58v1.18a4.91,4.91,0,0,0-1.34-.84,4.37,4.37,0,0,0-1.52-.25,4.2,4.2,0,0,0-3.19,1.43,5,5,0,0,0-1.26,3.52,4.72,4.72,0,0,0,1.35,3.53,4.41,4.41,0,0,0,3.36,1.43,1.12,1.12,0,0,0,.5-.08,4.79,4.79,0,0,0,.76-.17V192.3h.75Z"/><path class="cls-2" d="M109.05,198.1V186.76h.08a4.89,4.89,0,0,1,3.11.84,2.76,2.76,0,0,1,1.09,2.35,4,4,0,0,1-.17,1.09,2.56,2.56,0,0,1-.59.92,2.2,2.2,0,0,1,.93,1,4,4,0,0,1,.33,1.51,3.27,3.27,0,0,1-1.17,2.69,5.25,5.25,0,0,1-3.28.93Zm1-1a2.41,2.41,0,0,0,1.94-.76,2.31,2.31,0,0,0,.67-1.85,2.93,2.93,0,0,0-.42-1.51,2.62,2.62,0,0,0-1.35-.92,1.7,1.7,0,0,0,1-.84,3.49,3.49,0,0,0,.34-1.35,1.8,1.8,0,0,0-.59-1.51,2.55,2.55,0,0,0-1.68-.59v9.33Z"/><path class="cls-2" d="M123.08,196.33v1.18a5.56,5.56,0,0,1-1.43.59,3.91,3.91,0,0,1-1.43.17,5.48,5.48,0,0,1-4-1.69,5.67,5.67,0,0,1-1.6-4.2,5.81,5.81,0,0,1,1.6-4.2,5.51,5.51,0,0,1,4-1.68,7.78,7.78,0,0,1,1.43.17,7,7,0,0,1,1.43.59v1.18a4.85,4.85,0,0,0-1.35-.84,4.35,4.35,0,0,0-1.51-.26,4,4,0,0,0-2.94,1.18,5.16,5.16,0,0,0-1.51,3.19H121v1h-5.2a5.32,5.32,0,0,0,1.42,3.28,4.13,4.13,0,0,0,3,1.26,4,4,0,0,0,1.51-.26,3.28,3.28,0,0,0,1.35-.67"/><path class="cls-2" d="M131.9,192.38v5.38a6.18,6.18,0,0,1-1.18.42,5.33,5.33,0,0,1-1.18.17,5.18,5.18,0,0,1-3.94-1.68,5.67,5.67,0,0,1-1.6-4.2,5.79,5.79,0,0,1,1.6-4.2,5.51,5.51,0,0,1,4-1.68,7,7,0,0,1,1.43.17,6.16,6.16,0,0,1,1.42.58v1.18a4.91,4.91,0,0,0-1.34-.84,4.35,4.35,0,0,0-1.51-.25,4.18,4.18,0,0,0-3.19,1.43,5,5,0,0,0-1.26,3.52,4.76,4.76,0,0,0,1.34,3.53,4.42,4.42,0,0,0,3.36,1.43,1.08,1.08,0,0,0,.5-.08,4.79,4.79,0,0,0,.76-.17V192.3h.76Z"/><rect class="cls-2" x="133.83" y="186.76" width="1.01" height="11.34"/><path class="cls-2" d="M136.6,198.1V186.5a12.62,12.62,0,0,1,3.28,2.52,9.25,9.25,0,0,1,1.85,3.45l-.09-5.71h1V198.1h-1v-.84a12.68,12.68,0,0,0-1-5.21,9.5,9.5,0,0,0-3-3.78V198h-1Z"/><path class="cls-2" d="M145.34,198.1a3.2,3.2,0,0,0,1.09-1.26,3.53,3.53,0,0,0,.42-1.6,2.3,2.3,0,0,0-.25-1.09,3.11,3.11,0,0,0-.84-1.09l-.17-.17a4.51,4.51,0,0,1-1.51-2.94,3.64,3.64,0,0,1,.92-2.44,3.07,3.07,0,0,1,2.36-1,3.23,3.23,0,0,1,.92.09,4.24,4.24,0,0,1,.92.33V188a6.88,6.88,0,0,0-.84-.51,3.08,3.08,0,0,0-.92-.17,2.17,2.17,0,0,0-1.6.68,2.69,2.69,0,0,0-.67,1.76,3,3,0,0,0,.25,1.18,5.29,5.29,0,0,0,.93,1.17,7.43,7.43,0,0,1,1.09,1.43,3.44,3.44,0,0,1,.34,1.6,4.75,4.75,0,0,1-.26,1.51,4.23,4.23,0,0,1-.75,1.34h-1.43Z"/><path class="cls-2" d="M155.5,198.1v-.84a18.69,18.69,0,0,1,.84-6,13.07,13.07,0,0,1,2.78-4.62,13.88,13.88,0,0,1,2.77,4.62,18.21,18.21,0,0,1,.84,6v.93h-.93v-.42a16.27,16.27,0,0,0-.08-2.1,8,8,0,0,0-.17-1.6h-5c-.08.59-.08,1.18-.17,1.85s-.08,1.43-.08,2.27Zm1.26-5.13h4.62a9.58,9.58,0,0,0-.84-2.52,13.44,13.44,0,0,0-1.51-2.52,10.45,10.45,0,0,0-1.43,2.44,14.1,14.1,0,0,0-.84,2.6"/><polygon class="cls-2" points="163.82 198.1 163.82 186.75 164.83 186.75 164.83 197.17 167.85 197.17 167.85 198.18 163.82 198.18 163.82 198.1"/><polygon class="cls-2" points="168.78 198.1 168.78 186.75 169.79 186.75 169.79 197.17 172.81 197.17 172.81 198.18 168.78 198.18 168.78 198.1"/><path class="cls-2" d="M179.28,192.47a5.7,5.7,0,0,1,.33-2,5.16,5.16,0,0,1,.93-1.76,6,6,0,0,1,1.93-1.6,5.89,5.89,0,0,1,2.44-.59,5.24,5.24,0,0,1,1.93.34,6.7,6.7,0,0,1,1.68,1,5.79,5.79,0,0,1,1.51,2,6.1,6.1,0,0,1,.51,2.52,5.68,5.68,0,0,1-.34,2,6.87,6.87,0,0,1-.92,1.76,5.93,5.93,0,0,1-1.94,1.6,5.55,5.55,0,0,1-2.35.51,6.35,6.35,0,0,1-2.18-.42,6.72,6.72,0,0,1-1.85-1.27,6,6,0,0,1-1.18-1.84,7,7,0,0,1-.5-2.27m1,0a4.77,4.77,0,0,0,1.34,3.53,4.41,4.41,0,0,0,3.28,1.43A4.22,4.22,0,0,0,188.1,196a5.11,5.11,0,0,0,1.34-3.53,4.9,4.9,0,0,0-1.34-3.53,4.39,4.39,0,0,0-3.28-1.43,4.22,4.22,0,0,0-3.19,1.43,5.09,5.09,0,0,0-1.34,3.53"/><path class="cls-2" d="M197,198.1a10.18,10.18,0,0,1-4.46-4.37,15,15,0,0,1-1.51-7h1v.08a13.93,13.93,0,0,0,1,5.63,10.27,10.27,0,0,0,3,4v-9.74h1V198.1Z"/><path class="cls-2" d="M206.67,196.33v1.18a5.56,5.56,0,0,1-1.43.59,3.91,3.91,0,0,1-1.43.17,5.48,5.48,0,0,1-4-1.69,5.71,5.71,0,0,1-1.6-4.2,5.85,5.85,0,0,1,1.6-4.2,5.22,5.22,0,0,1,4-1.68,7.78,7.78,0,0,1,1.43.17,7,7,0,0,1,1.43.59v1.18a4.85,4.85,0,0,0-1.35-.84,4.35,4.35,0,0,0-1.51-.26,4,4,0,0,0-2.94,1.18,5.21,5.21,0,0,0-1.51,3.19h5.21v1h-5.21a5.39,5.39,0,0,0,1.43,3.28,4.11,4.11,0,0,0,3,1.26,4,4,0,0,0,1.51-.26,3.28,3.28,0,0,0,1.35-.67"/><path class="cls-2" d="M209.1,198.1H208V186.76h.08a4.7,4.7,0,0,1,3.2,1.17,3.83,3.83,0,0,1,1.26,2.94,4,4,0,0,1-.51,2,5.36,5.36,0,0,1-1.68,1.76,3.56,3.56,0,0,0,.84,1.43,8,8,0,0,0,1.35,1.09v1.18a8.66,8.66,0,0,1-1.35-.76,5.26,5.26,0,0,1-1.76-2.43,3,3,0,0,1-.34-1.1c0-.08.09-.16.34-.25a3.88,3.88,0,0,0,.59-.33,3.65,3.65,0,0,0,1.09-1.18,2.78,2.78,0,0,0,.34-1.43,3.19,3.19,0,0,0-.68-1.93,2.67,2.67,0,0,0-1.76-1V198.1Z"/><path class="cls-2" d="M219.44,198.1v-.84a18.42,18.42,0,0,1,.84-6,12.9,12.9,0,0,1,2.77-4.62,13.88,13.88,0,0,1,2.77,4.62,18.21,18.21,0,0,1,.84,6v.93h-.92v-.42a14.47,14.47,0,0,0-.09-2.1,8,8,0,0,0-.17-1.6h-5c-.08.59-.08,1.18-.16,1.85s-.09,1.43-.09,2.27ZM220.7,193h4.62a10,10,0,0,0-.84-2.52,13,13,0,0,0-1.52-2.52,10.41,10.41,0,0,0-1.42,2.44,12.74,12.74,0,0,0-.84,2.6"/><path class="cls-2" d="M235.23,192.38v5.38a6.18,6.18,0,0,1-1.18.42,5.14,5.14,0,0,1-5.12-1.51,6,6,0,0,1-1.6-4.2,5.83,5.83,0,0,1,1.6-4.2,5.2,5.2,0,0,1,4-1.68,6.92,6.92,0,0,1,1.43.17,6.41,6.41,0,0,1,1.43.58v1.18a5.1,5.1,0,0,0-1.35-.84,4.31,4.31,0,0,0-1.51-.25,4.18,4.18,0,0,0-3.19,1.43,5,5,0,0,0-1.26,3.52,4.76,4.76,0,0,0,1.34,3.53,4.42,4.42,0,0,0,3.36,1.43,1.14,1.14,0,0,0,.51-.08,4.5,4.5,0,0,0,.75-.17V192.3h.76Z"/><path class="cls-2" d="M236.49,198.1v-.84a18.42,18.42,0,0,1,.84-6,13,13,0,0,1,2.77-4.62,13.72,13.72,0,0,1,2.77,4.62,18.2,18.2,0,0,1,.85,6v.93h-.93v-.42a16.27,16.27,0,0,0-.08-2.1,8.82,8.82,0,0,0-.17-1.6h-5c-.09.59-.09,1.18-.17,1.85s-.08,1.43-.08,2.27Zm1.26-5.13h4.62a10,10,0,0,0-.84-2.52,13.44,13.44,0,0,0-1.51-2.52,10.45,10.45,0,0,0-1.43,2.44,22.59,22.59,0,0,0-.84,2.6"/><rect class="cls-2" x="244.81" y="186.76" width="1.01" height="11.34"/><path class="cls-2" d="M247.58,198.1V186.5a12.62,12.62,0,0,1,3.28,2.52,9.08,9.08,0,0,1,1.84,3.45l-.16-5.8h1V198h-1v-.84a12.88,12.88,0,0,0-1-5.21,9.43,9.43,0,0,0-3-3.78v9.75h-.92Z"/><path class="cls-2" d="M259.34,199.11a7.6,7.6,0,0,1-3.19-2.86,7.76,7.76,0,0,1-1.09-3.95,7.39,7.39,0,0,1,1-4,7.87,7.87,0,0,1,3.27-2.85v1.26A6.36,6.36,0,0,0,256.9,189a6,6,0,0,0-.83,3.2,6.22,6.22,0,0,0,.75,3.19,6.79,6.79,0,0,0,2.52,2.35Z"/><path class="cls-2" d="M265.81,199.11v-1.26a7.7,7.7,0,0,0,2.52-2.36,6.43,6.43,0,0,0,.76-3.19,5.92,5.92,0,0,0-.84-3.19,6.39,6.39,0,0,0-2.44-2.27v-1.26a8.16,8.16,0,0,1,3.19,2.86,7.45,7.45,0,0,1,1,3.94,6.83,6.83,0,0,1-1.09,4,7.81,7.81,0,0,1-3.11,2.78"/><path class="cls-2" d="M271.77,198.1a2.3,2.3,0,0,1-.41-.25.64.64,0,0,1-.17-.42,1.14,1.14,0,0,1,.17-.51c.08-.17.25-.17.5-.17a1.19,1.19,0,0,1,.5.17c.17.17.17.25.17.51v.16a.26.26,0,0,1-.08.17l-.76,1.43h-.59Zm-.58-2.69a1.14,1.14,0,0,1,.17-.51.62.62,0,0,1,1,0,.62.62,0,0,1,.17.51,1.11,1.11,0,0,1-.17.5.58.58,0,0,1-.5.25,1.17,1.17,0,0,1-.5-.16c-.17-.09-.17-.42-.17-.59"/><path d="M30.5,7.39C25.79,2.94,19.41.76,11.34.76h-.59V49.15h1c7.81,0,14-2.27,18.82-6.72s7.06-10.34,7.06-17.56-2.44-13-7.14-17.48M28.31,39.06C25,42.68,20.58,44.61,15,44.78V5.29c5.46.09,9.83,1.93,13.19,5.63s5,8.4,5,14.12-1.68,10.41-5,14"/><path d="M138.87,152.4V170a75.36,75.36,0,0,1-21.17,9.49,93.39,93.39,0,0,1-24.87,3.11,85.14,85.14,0,0,1-33-6.55A83.16,83.16,0,0,1,31.92,157,86,86,0,0,1,13.1,128.45,92.16,92.16,0,0,1,6.72,93.92q0-37.8,25.12-63.26T94.76,5.21a84.52,84.52,0,0,1,22.35,2.94,97,97,0,0,1,21.76,9.24V35.45A79.8,79.8,0,0,0,117.19,23.1a72.53,72.53,0,0,0-24.27-3.78Q63.3,19.32,43,40.83c-13.61,14.37-20.33,32-20.33,53s6.81,38.65,20.33,53,30.25,21.51,49.91,21.51a76.3,76.3,0,0,0,25-4,64.54,64.54,0,0,0,21-12"/><path class="cls-3" d="M124.92,177.09V161.47a59.16,59.16,0,0,1-7.14,3,68.52,68.52,0,0,1-17.47,3.62V182.3a85.63,85.63,0,0,0,17.3-2.85,52,52,0,0,0,7.31-2.36"/><path class="cls-3" d="M117,8.06a84,84,0,0,0-16.72-2.68V19.66a68.41,68.41,0,0,1,16.8,3.44,64,64,0,0,1,7.81,3.36V10.67c-2.68-1-5.29-1.85-7.89-2.61"/><path class="cls-3" d="M37.64,25.2c-1.6,1.35-3.2,2.86-4.71,4.37A18.63,18.63,0,0,1,28.4,39a16.7,16.7,0,0,1-7.15,4.62c-1.09,1.6-2.1,3.28-3.1,5a23.89,23.89,0,0,0,12.43-6.14c4.62-4.36,7-10.08,7.06-17.22"/></g></g></svg>